<svg
  xmlns="http://www.w3.org/2000/svg"
  width="501.252"
  height="302.582"
  viewBox="0 0 501.252 302.582"
>
  <g id="top-blob" transform="translate(-249.243 0.635)">
    <path
      id="top"
      d="M249.243.92l26.222,26.222a46.556,46.556,0,0,0,65.842,0l15.021-15.023a8.117,8.117,0,0,1,11.481,0l.149.149a8.369,8.369,0,0,1,.033,11.857L320.322,71.788a42.466,42.466,0,0,0,0,60.055h0a42.465,42.465,0,0,0,60.055,0L511.016.014h38.1L504.929,43.686a59.194,59.194,0,0,0,0,83.712h0a59.194,59.194,0,0,0,83.713,0l80.982-80.983a9.009,9.009,0,0,1,12.739,0h0a9.007,9.007,0,0,1,0,12.739L562.436,179.082a33.456,33.456,0,0,0,0,47.315h0a33.456,33.456,0,0,0,47.315,0l83.076-83.075a9.65,9.65,0,0,1,13.649,0h0a9.65,9.65,0,0,1,0,13.648l-1.455,1.455a70.647,70.647,0,0,0,0,99.911l44.57,43.611L749.565.354"
      fill="#b8e3db"
    />
    <circle
      id="b-dot"
      cx="19.083"
      cy="19.083"
      r="19.083"
      transform="translate(381.27 92.962)"
      fill="#31346b"
    />
    <path
      id="s-dot"
      d="M7.794,0A7.794,7.794,0,1,1,0,7.794,7.794,7.794,0,0,1,7.794,0Z"
      transform="translate(644.637 176.58)"
      fill="#31346b"
    />
    <line
      id="bw-line"
      y1="101.886"
      x2="101.424"
      transform="translate(645.901 33.739)"
      fill="none"
      stroke="#fff"
      stroke-linecap="round"
      stroke-miterlimit="10"
      stroke-width="3"
    />
    <line
      id="sw-line"
      y1="54.887"
      x2="56.694"
      transform="translate(418.63 2.739)"
      fill="none"
      stroke="#fff"
      stroke-linecap="round"
      stroke-miterlimit="10"
      stroke-width="3"
    />
    <circle
      id="sw-dot"
      cx="8.324"
      cy="8.324"
      r="8.324"
      transform="translate(712.448 116.888)"
      fill="#f7f3ea"
    />
    <path
      id="shadow-b"
      d="M623.026.193l-53.011,51.5a14.473,14.473,0,0,0,0,20.466h0a14.471,14.471,0,0,0,20.466,0l32.545-32.544a4.982,4.982,0,0,1,7.046,0h0a4.984,4.984,0,0,1,0,7.046L619,57.73A7.828,7.828,0,0,0,619,68.8h0a7.828,7.828,0,0,0,11.072,0l29.839-29.839a21.121,21.121,0,0,1,29.9,0l11.766,9.92L728.68.193S623.026-.478,623.026.193Z"
      fill="#cef0e6"
    />
    <line
      id="Line_9"
      data-name="Line 9"
      x1="73.498"
      y2="74"
      transform="translate(347.827 2.739)"
      fill="none"
      stroke="#31346b"
      stroke-linecap="round"
      stroke-miterlimit="10"
      stroke-width="3"
    />
    <path
      id="shadow-m"
      d="M694.407,43.421l-4.594-4.458S725.479,1.035,726.635-.121s23.86,0,23.86,0l-29.5,43.06A18.743,18.743,0,0,1,694.407,43.421Z"
      fill="#cef0e6"
    />
  </g>
</svg>
